<svg width="17" height="17" viewBox="0 0 17 17" fill="none" xmlns="http://www.w3.org/2000/svg">
<g clip-path="url(#clip0)">
<path d="M16.8731 8.1678C16.7213 7.99853 13.0715 4.01758 8.50002 4.01758C3.92854 4.01758 0.278724 7.99853 0.126952 8.1678C-0.0423174 8.35699 -0.0423174 8.64301 0.126952 8.8322C0.278724 9.00147 3.92861 12.9824 8.50002 12.9824C13.0714 12.9824 16.7213 9.00147 16.8731 8.8322C17.0423 8.64301 17.0423 8.35699 16.8731 8.1678ZM8.50002 11.9863C6.57785 11.9863 5.01369 10.4222 5.01369 8.5C5.01369 6.57784 6.57785 5.01367 8.50002 5.01367C10.4222 5.01367 11.9863 6.57784 11.9863 8.5C11.9863 10.4222 10.4222 11.9863 8.50002 11.9863Z" fill="black"/>
<path d="M8.99805 7.50391C8.99805 7.00287 9.24677 6.5621 9.62515 6.291C9.28562 6.11718 8.9069 6.00977 8.5 6.00977C7.12695 6.00977 6.00977 7.12695 6.00977 8.5C6.00977 9.87305 7.12695 10.9902 8.5 10.9902C9.72931 10.9902 10.7468 10.0926 10.9478 8.91975C9.94487 9.24265 8.99805 8.48413 8.99805 7.50391Z" fill="black"/>
</g>
<defs>
<clipPath id="clip0">
<rect width="17" height="17" fill="white"/>
</clipPath>
</defs>
</svg>
