<svg width="25" height="25" viewBox="0 0 25 25" fill="none" xmlns="http://www.w3.org/2000/svg">
<g clip-path="url(#clip0)">
<path d="M17.7734 8.40136C18.6364 8.40136 19.3359 7.7018 19.3359 6.83886C19.3359 5.97592 18.6364 5.27637 17.7734 5.27637C16.9105 5.27637 16.2109 5.97592 16.2109 6.83886C16.2109 7.7018 16.9105 8.40136 17.7734 8.40136Z" fill="black"/>
<path d="M24.7303 8.10153C24.2088 6.77371 23.2525 4.85784 21.6583 3.27113C20.0696 1.68989 18.1741 0.760985 16.8637 0.260108C15.425 -0.289743 13.7902 0.0568372 12.6989 1.14301L8.86403 4.95989C7.72726 6.09129 7.39963 7.8322 8.0487 9.29191C8.24997 9.74464 8.46886 10.1875 8.70275 10.6153L0.286034 19.032C0.10288 19.2151 0 19.4635 0 19.7225V24.0194C0 24.5587 0.437205 24.996 0.976559 24.996H5.27342C5.81277 24.996 6.24998 24.5587 6.24998 24.0194V22.2616L8.00778 22.2615C8.54713 22.2615 8.98434 21.8243 8.98434 21.285V19.5272H10.7421C11.2815 19.5272 11.7187 19.09 11.7187 18.5507C11.7187 18.0113 11.2815 17.5741 10.7421 17.5741H8.00778C7.46843 17.5741 7.03122 18.0113 7.03122 18.5507V20.3084L5.27342 20.3085C4.73406 20.3085 4.29686 20.7457 4.29686 21.285V23.0428H1.95312V20.127L10.613 11.4672C10.9312 11.149 10.9908 10.6547 10.7574 10.2701C10.419 9.71227 10.1081 9.11618 9.83346 8.49836C9.51124 7.7737 9.6754 6.90803 10.242 6.34412L14.0768 2.52729C14.6243 1.98242 15.4445 1.80864 16.1665 2.08452C17.3004 2.51791 18.9345 3.31566 20.2805 4.6554C21.6348 6.00325 22.4592 7.66159 22.9124 8.8154C23.1951 9.53551 23.0233 10.3536 22.4746 10.8997L18.5935 14.7627C18.0283 15.3251 17.1847 15.4896 16.4443 15.1816C15.8336 14.9276 15.2421 14.6259 14.6865 14.2848C14.2268 14.0027 13.6255 14.1466 13.3434 14.6063C13.0612 15.066 13.2051 15.6673 13.6648 15.9495C14.307 16.3436 14.9898 16.692 15.6942 16.9849C17.1659 17.5972 18.8448 17.2681 19.9713 16.147L23.8524 12.2841C24.9532 11.1884 25.2978 9.54669 24.7303 8.10153Z" fill="black"/>
</g>
<defs>
<clipPath id="clip0">
<rect width="25" height="25" fill="white"/>
</clipPath>
</defs>
</svg>
