<svg width="169" height="169" viewBox="0 0 169 169" fill="none" xmlns="http://www.w3.org/2000/svg">
<g clip-path="url(#clip0)">
<path d="M107.444 17.999C100.052 17.999 94.0682 17.999 94.0682 17.999L89.9234 5.27134C87.6463 -1.75744 83.9337 -1.75744 81.6611 5.27134C79.3631 12.3042 77.5179 17.999 77.5179 17.999H64.1315C56.7398 17.999 55.5941 21.5284 61.5735 25.8701C67.568 30.2046 72.4081 33.7323 72.4081 33.7323L68.2616 46.4599C65.9828 53.4911 68.9809 55.6718 74.9723 51.3261C80.9431 46.9821 85.7878 43.4584 85.7878 43.4584L96.6115 51.3261C102.592 55.6684 105.584 53.4911 103.305 46.4599C101.023 39.4271 99.1742 33.7323 99.1742 33.7323L110.006 25.8701C115.977 21.5284 114.832 17.999 107.444 17.999Z" fill="#F2F2F2"/>
<path d="M57.6969 63.4182C57.6969 63.4182 52.6616 66.7976 50.8755 83.2153C60.2917 95.4089 71.9939 93.4154 77.1464 91.7137C77.6146 91.5559 78.2054 90.7921 78.2365 90.3056C78.9206 78.5825 69.2405 62.9541 65.7535 57.7371C62.9484 58.8548 60.2183 60.6634 57.6969 63.4182Z" fill="#F2F2F2"/>
<path d="M107.041 32.9731L108.719 38.1447C109.824 41.56 109.998 44.4679 109.368 46.8991C128.869 56.2292 142.403 76.0933 142.403 99.1099C142.403 131.041 116.427 157.017 84.4974 157.017C84.1567 157.017 83.8222 156.969 83.4856 156.963L83.3927 154.804C83.3496 153.839 84.0488 152.78 84.9522 152.443L96.1562 148.24C96.1562 148.24 101.411 148.533 103.597 144.589C104.704 142.601 105.733 141.211 106.487 140.315C107.106 139.579 107.097 138.527 106.402 137.854C104.116 135.639 99.5114 130.788 99.0764 127.08C98.4911 122.118 91.4903 118.03 82.4393 117.448C82.4393 117.448 77.6337 113.753 77.3104 107.377C77.2588 106.411 76.5371 105.451 75.5985 105.684C73.1793 106.277 69.0744 109.383 68.8704 123.566C68.8704 123.566 56.019 130.079 54.8214 148.742C53.7983 148.13 52.7736 147.525 51.7922 146.849C52.2593 141.176 53.6931 136.657 55.3726 133.246C58.7062 126.468 63.3861 122.7 65.7732 121.11C66.2875 107.111 70.8301 103.021 74.6233 102.084C75.7881 101.797 77.0107 102.046 77.9795 102.77C79.0825 103.591 79.7847 104.943 79.8595 106.396C80.0543 110.158 82.2781 112.799 83.3336 113.849C85.0424 114.007 86.6754 114.279 88.2096 114.652L88.3532 113.332L89.5255 101.928C89.7247 100.005 91.4565 98.3797 93.3703 98.107C100.641 97.0481 116.84 92.7409 117.895 75.2394C118.011 73.3064 116.384 71.3652 114.502 70.9073L99.0812 67.1421C99.0812 67.1421 98.6411 63.42 94.2649 61.8898C91.0755 60.7711 80.0884 54.4606 69.2794 56.6867C73.3658 62.9077 82.4575 78.2422 81.7392 90.5079C81.6316 92.4375 80.0973 94.4296 78.2556 95.0372C76.4852 95.6239 73.3047 96.4436 69.4397 96.4436C63.8406 96.4436 56.8094 94.7228 50.4736 88.1013C50.3492 90.2031 50.2781 92.4806 50.2662 94.9415C50.1944 107.64 34.0644 119.681 34.0644 119.681L32.1379 123.669C28.6239 116.199 26.5993 107.899 26.5993 99.1099C26.5993 75.5052 40.8123 55.1874 61.1135 46.1805C60.6918 43.8921 60.8958 41.2385 61.8987 38.1423L63.7852 32.3542C35.3277 41.2012 14.6111 67.779 14.6111 99.1102C14.6111 137.646 45.9645 169 84.5008 169C123.037 169 154.39 137.646 154.39 99.1102C154.386 68.46 134.548 42.375 107.041 32.9731ZM92.4286 127.949C93.5166 127.949 94.3999 128.828 94.3999 129.921C94.3999 131.011 93.5166 131.891 92.4286 131.891C91.341 131.891 90.4591 131.012 90.4591 129.921C90.4591 128.828 91.341 127.949 92.4286 127.949ZM90.4591 71.0334C91.5498 71.0334 92.4286 71.9136 92.4286 73.0036C92.4286 74.0937 91.5501 74.9725 90.4591 74.9725C89.367 74.9725 88.4864 74.094 88.4864 73.0036C88.4881 71.9136 89.3718 71.0334 90.4591 71.0334Z" fill="#F2F2F2"/>
</g>
<defs>
<clipPath id="clip0">
<rect width="169" height="169" fill="white"/>
</clipPath>
</defs>
</svg>
